<svg width="250" height="75" viewBox="0 0 250 75" fill="none" xmlns="http://www.w3.org/2000/svg">
<path d="M2.446 67.7439L10.813 6.01666C11.1231 3.72903 13.0762 2.02273 15.3848 2.02273H234.099C236.394 2.02273 238.34 3.70936 238.666 5.98093L247.525 67.7082C247.924 70.4885 245.767 72.9773 242.958 72.9773H7.01783C4.22352 72.9773 2.07067 70.5129 2.446 67.7439Z" fill="#FFF0D1" stroke="#163F47" stroke-width="3.95455"/>
<g filter="url(#filter0_i_1_52)">
<path d="M233.528 7.29546H15.9606L7.77228 67.7045H242.198L233.528 7.29546ZM242.306 68.4573L242.306 68.4558L242.306 68.4573Z" stroke="#166A7D" stroke-width="6.59091"/>
</g>
<path d="M38.232 25.844C38.936 25.844 39.64 25.908 40.344 26.036C41.0693 26.1427 41.72 26.324 42.296 26.58C42.872 26.8147 43.3413 27.1133 43.704 27.476C44.088 27.8173 44.28 28.2227 44.28 28.692C44.28 29.1827 44.152 29.556 43.896 29.812C43.64 30.068 43.32 30.196 42.936 30.196C42.5733 30.196 42.2533 30.1427 41.976 30.036C41.6987 29.908 41.3787 29.7693 41.016 29.62C40.6747 29.4707 40.2587 29.3427 39.768 29.236C39.2773 29.108 38.6267 29.044 37.816 29.044C37.0053 29.044 36.2267 29.2573 35.48 29.684C34.7547 30.0893 34.1147 30.6653 33.56 31.412C33.0267 32.1373 32.6 33.0013 32.28 34.004C31.96 35.0067 31.8 36.0947 31.8 37.268C31.8 38.7187 31.9813 39.9667 32.344 41.012C32.728 42.0573 33.2187 42.9213 33.816 43.604C34.4133 44.2653 35.0853 44.7667 35.832 45.108C36.6 45.428 37.368 45.588 38.136 45.588C39.0533 45.588 39.8213 45.492 40.44 45.3C41.0587 45.108 41.5813 44.8947 42.008 44.66C42.456 44.4253 42.84 44.212 43.16 44.02C43.48 43.828 43.7893 43.732 44.088 43.732C44.4507 43.732 44.7387 43.8387 44.952 44.052C45.1653 44.244 45.272 44.596 45.272 45.108C45.272 45.5347 45.1013 45.972 44.76 46.42C44.44 46.8467 43.96 47.2413 43.32 47.604C42.7013 47.9453 41.9547 48.2333 41.08 48.468C40.2053 48.6813 39.224 48.788 38.136 48.788C36.9413 48.788 35.7467 48.5533 34.552 48.084C33.3787 47.6147 32.3227 46.9213 31.384 46.004C30.4667 45.0653 29.72 43.9027 29.144 42.516C28.568 41.108 28.28 39.476 28.28 37.62C28.28 35.764 28.536 34.1107 29.048 32.66C29.5813 31.2093 30.296 29.9827 31.192 28.98C32.1093 27.956 33.1653 27.1773 34.36 26.644C35.576 26.1107 36.8667 25.844 38.232 25.844ZM61.8043 46.868C61.5909 46.356 61.3563 45.7693 61.1003 45.108C60.8656 44.4253 60.6096 43.7107 60.3323 42.964C59.6923 42.9853 59.0203 43.0067 58.3162 43.028C57.6123 43.028 56.8976 43.028 56.1722 43.028C55.2549 43.028 54.4229 43.028 53.6762 43.028C52.9296 43.028 52.2469 43.0173 51.6283 42.996C51.3722 43.7427 51.1269 44.4467 50.8923 45.108C50.6576 45.7693 50.4336 46.356 50.2202 46.868C49.7936 47.956 49.1749 48.5 48.3642 48.5C48.0656 48.5 47.7776 48.404 47.5002 48.212C47.2442 48.02 47.1162 47.7427 47.1162 47.38C47.1162 47.0173 47.1802 46.548 47.3082 45.972C47.4362 45.3747 47.5962 44.7453 47.7882 44.084C48.0016 43.4013 48.2256 42.708 48.4602 42.004C48.6949 41.2787 48.9189 40.6067 49.1322 39.988C49.3456 39.3053 49.6442 38.4413 50.0282 37.396C50.4336 36.3293 50.8602 35.22 51.3082 34.068C51.7562 32.916 52.2042 31.7853 52.6522 30.676C53.1003 29.5453 53.5056 28.564 53.8682 27.732C53.9536 27.5187 54.0603 27.284 54.1883 27.028C54.3163 26.7507 54.4656 26.4947 54.6363 26.26C54.8282 26.0253 55.0309 25.8227 55.2443 25.652C55.4789 25.4813 55.7349 25.396 56.0122 25.396C56.2896 25.396 56.5456 25.492 56.7803 25.684C57.0149 25.8547 57.2176 26.068 57.3883 26.324C57.5803 26.58 57.7403 26.8467 57.8682 27.124C58.0176 27.4013 58.1349 27.6467 58.2203 27.86C58.5616 28.7133 58.9456 29.6947 59.3723 30.804C59.8203 31.9133 60.2576 33.0333 60.6843 34.164C61.1323 35.2947 61.5483 36.372 61.9323 37.396C62.3163 38.42 62.6256 39.284 62.8603 39.988C63.0523 40.6067 63.2656 41.268 63.5002 41.972C63.7563 42.676 63.9909 43.3693 64.2043 44.052C64.4176 44.7347 64.5883 45.3747 64.7163 45.972C64.8656 46.548 64.9403 47.0173 64.9403 47.38C64.9403 47.7427 64.8016 48.02 64.5243 48.212C64.2683 48.404 63.9909 48.5 63.6923 48.5C63.3083 48.5 62.9563 48.372 62.6362 48.116C62.3162 47.8387 62.0389 47.4227 61.8043 46.868ZM56.1403 39.828C56.6522 39.828 57.1643 39.8387 57.6763 39.86C58.1883 39.86 58.7003 39.8707 59.2123 39.892C58.9563 39.1453 58.7002 38.3987 58.4443 37.652C58.1883 36.9053 57.9429 36.1907 57.7083 35.508C57.4949 34.8253 57.2923 34.196 57.1003 33.62C56.9296 33.0227 56.7802 32.5 56.6523 32.052C56.5669 31.7747 56.4709 31.5507 56.3643 31.38C56.2576 31.2093 56.1189 31.124 55.9482 31.124C55.7776 31.124 55.6389 31.22 55.5323 31.412C55.4256 31.5827 55.3296 31.8067 55.2443 32.084C54.9883 32.9587 54.6256 34.1 54.1562 35.508C53.7083 36.8947 53.2283 38.356 52.7162 39.892C53.2923 39.8707 53.8683 39.86 54.4443 39.86C55.0203 39.8387 55.5856 39.828 56.1403 39.828ZM70.6975 39.572C70.6975 40.2547 70.6975 40.8627 70.6975 41.396C70.6975 41.908 70.6868 42.3987 70.6655 42.868C70.6655 43.3373 70.6548 43.8067 70.6335 44.276C70.6122 44.7453 70.5908 45.268 70.5695 45.844C72.0415 45.6733 73.1935 45.5347 74.0255 45.428C74.8575 45.3213 75.5082 45.236 75.9775 45.172C76.4682 45.108 76.8415 45.0653 77.0975 45.044C77.3748 45.0227 77.6948 45.012 78.0575 45.012C78.9962 45.012 79.4655 45.4707 79.4655 46.388C79.4655 46.7507 79.2735 47.06 78.8895 47.316C78.5268 47.572 78.0575 47.796 77.4815 47.988C76.9268 48.1587 76.2975 48.308 75.5935 48.436C74.9108 48.5427 74.2388 48.6173 73.5775 48.66C72.9375 48.724 72.3508 48.7667 71.8175 48.788C71.3055 48.8093 70.9428 48.82 70.7295 48.82C69.9615 48.82 69.3642 48.7667 68.9375 48.66C68.5108 48.5747 68.1908 48.2973 67.9775 47.828C67.7642 47.3373 67.6255 46.6013 67.5615 45.62C67.5188 44.6387 67.4975 43.252 67.4975 41.46C67.4975 39.732 67.4975 38.196 67.4975 36.852C67.4975 35.508 67.5082 34.3027 67.5295 33.236C67.5508 32.1693 67.5615 31.22 67.5615 30.388C67.5828 29.556 67.6148 28.7987 67.6575 28.116C67.7002 27.2413 67.8495 26.676 68.1055 26.42C68.3615 26.1427 68.6815 26.004 69.0655 26.004C69.2788 26.004 69.4602 26.0253 69.6095 26.068C69.7802 26.0893 69.9295 26.1747 70.0575 26.324C70.1855 26.4733 70.2815 26.6867 70.3455 26.964C70.4308 27.2413 70.4842 27.636 70.5055 28.148C70.5908 30.0253 70.6442 31.8813 70.6655 33.716C70.6868 35.5507 70.6975 37.5027 70.6975 39.572ZM85.5487 39.572C85.5487 40.2547 85.5487 40.8627 85.5487 41.396C85.5487 41.908 85.5381 42.3987 85.5167 42.868C85.5167 43.3373 85.5061 43.8067 85.4847 44.276C85.4634 44.7453 85.4421 45.268 85.4207 45.844C86.8927 45.6733 88.0447 45.5347 88.8767 45.428C89.7087 45.3213 90.3594 45.236 90.8287 45.172C91.3194 45.108 91.6927 45.0653 91.9487 45.044C92.2261 45.0227 92.5461 45.012 92.9087 45.012C93.8474 45.012 94.3167 45.4707 94.3167 46.388C94.3167 46.7507 94.1247 47.06 93.7407 47.316C93.3781 47.572 92.9087 47.796 92.3327 47.988C91.7781 48.1587 91.1487 48.308 90.4447 48.436C89.7621 48.5427 89.0901 48.6173 88.4287 48.66C87.7887 48.724 87.2021 48.7667 86.6687 48.788C86.1567 48.8093 85.7941 48.82 85.5807 48.82C84.8127 48.82 84.2154 48.7667 83.7887 48.66C83.3621 48.5747 83.0421 48.2973 82.8287 47.828C82.6154 47.3373 82.4767 46.6013 82.4127 45.62C82.3701 44.6387 82.3487 43.252 82.3487 41.46C82.3487 39.732 82.3487 38.196 82.3487 36.852C82.3487 35.508 82.3594 34.3027 82.3807 33.236C82.4021 32.1693 82.4127 31.22 82.4127 30.388C82.4341 29.556 82.4661 28.7987 82.5087 28.116C82.5514 27.2413 82.7007 26.676 82.9567 26.42C83.2127 26.1427 83.5327 26.004 83.9167 26.004C84.1301 26.004 84.3114 26.0253 84.4607 26.068C84.6314 26.0893 84.7807 26.1747 84.9087 26.324C85.0367 26.4733 85.1327 26.6867 85.1967 26.964C85.2821 27.2413 85.3354 27.636 85.3567 28.148C85.4421 30.0253 85.4954 31.8813 85.5167 33.716C85.5381 35.5507 85.5487 37.5027 85.5487 39.572ZM104.207 33.62C104.207 31.828 104.271 30.4307 104.399 29.428C104.527 28.404 104.794 27.636 105.199 27.124C105.605 26.612 106.181 26.3027 106.927 26.196C107.674 26.068 108.655 26.004 109.871 26.004C110.554 26.004 111.173 26.004 111.727 26.004C112.282 26.004 112.815 26.0147 113.327 26.036C113.861 26.036 114.383 26.0467 114.895 26.068C115.429 26.0893 116.005 26.1107 116.623 26.132C117.135 26.1747 117.53 26.2387 117.807 26.324C118.085 26.388 118.298 26.484 118.447 26.612C118.597 26.74 118.682 26.8893 118.703 27.06C118.746 27.2307 118.767 27.4227 118.767 27.636C118.767 28.02 118.629 28.34 118.351 28.596C118.095 28.852 117.53 29.0013 116.655 29.044C116.122 29.0653 115.599 29.0867 115.087 29.108C114.597 29.1293 114.031 29.1507 113.391 29.172C112.773 29.172 112.069 29.1827 111.279 29.204C110.49 29.204 109.541 29.204 108.431 29.204C108.047 29.204 107.781 29.3427 107.631 29.62C107.482 29.876 107.407 30.2067 107.407 30.612C107.407 30.932 107.407 31.252 107.407 31.572C107.429 31.892 107.439 32.244 107.439 32.628C107.461 33.012 107.471 33.4493 107.471 33.94C107.493 34.4093 107.503 34.964 107.503 35.604C108.293 35.604 108.975 35.6147 109.551 35.636C110.149 35.636 110.661 35.6467 111.087 35.668C111.535 35.668 111.93 35.6787 112.271 35.7C112.613 35.7213 112.943 35.7427 113.263 35.764C114.138 35.8067 114.703 35.956 114.959 36.212C115.237 36.468 115.375 36.788 115.375 37.172C115.375 37.3853 115.354 37.5773 115.311 37.748C115.29 37.9187 115.205 38.068 115.055 38.196C114.906 38.324 114.693 38.4307 114.415 38.516C114.138 38.6013 113.743 38.6653 113.231 38.708C112.89 38.7293 112.559 38.7507 112.239 38.772C111.941 38.772 111.578 38.7827 111.151 38.804C110.746 38.804 110.255 38.804 109.679 38.804C109.103 38.804 108.378 38.804 107.503 38.804C107.482 40.084 107.471 41.396 107.471 42.74C107.493 44.0627 107.461 45.428 107.375 46.836C107.333 47.668 107.183 48.18 106.927 48.372C106.693 48.5427 106.33 48.628 105.839 48.628C105.37 48.628 105.018 48.532 104.783 48.34C104.549 48.1267 104.41 47.636 104.367 46.868C104.325 46.1853 104.293 45.4387 104.271 44.628C104.271 43.796 104.261 42.8573 104.239 41.812C104.218 40.7453 104.207 39.5507 104.207 38.228C104.207 36.884 104.207 35.348 104.207 33.62ZM128.947 48.82C127.667 48.82 126.462 48.564 125.331 48.052C124.222 47.54 123.251 46.804 122.419 45.844C121.587 44.8627 120.926 43.668 120.435 42.26C119.966 40.852 119.731 39.252 119.731 37.46C119.731 35.7747 119.934 34.228 120.339 32.82C120.766 31.412 121.385 30.196 122.195 29.172C123.027 28.148 124.051 27.3587 125.267 26.804C126.483 26.228 127.891 25.94 129.491 25.94C130.793 25.94 132.03 26.1747 133.203 26.644C134.377 27.1133 135.401 27.8173 136.275 28.756C137.171 29.6947 137.875 30.868 138.387 32.276C138.899 33.684 139.155 35.3267 139.155 37.204C139.155 38.7613 138.942 40.244 138.515 41.652C138.11 43.06 137.481 44.2973 136.627 45.364C135.795 46.4093 134.739 47.252 133.459 47.892C132.179 48.5107 130.675 48.82 128.947 48.82ZM129.011 45.812C130.185 45.812 131.209 45.5773 132.083 45.108C132.958 44.6173 133.683 43.9773 134.259 43.188C134.835 42.3987 135.262 41.492 135.539 40.468C135.817 39.4227 135.955 38.356 135.955 37.268C135.955 35.9453 135.774 34.772 135.411 33.748C135.07 32.7027 134.601 31.828 134.003 31.124C133.406 30.42 132.713 29.8867 131.923 29.524C131.134 29.14 130.291 28.948 129.395 28.948C128.329 28.948 127.39 29.172 126.579 29.62C125.79 30.068 125.118 30.676 124.563 31.444C124.03 32.212 123.625 33.1187 123.347 34.164C123.07 35.188 122.931 36.2867 122.931 37.46C122.931 38.7187 123.091 39.8707 123.411 40.916C123.731 41.94 124.158 42.8147 124.691 43.54C125.246 44.2653 125.897 44.8307 126.643 45.236C127.39 45.62 128.179 45.812 129.011 45.812ZM150.052 40.628C149.753 40.6493 149.444 40.6707 149.124 40.692C148.825 40.692 148.516 40.692 148.196 40.692C147.833 40.692 147.471 40.692 147.108 40.692C146.745 40.692 146.34 40.6707 145.892 40.628V47.124C145.892 47.8067 145.721 48.2333 145.38 48.404C145.06 48.5533 144.655 48.628 144.164 48.628C143.908 48.628 143.705 48.6067 143.556 48.564C143.407 48.5427 143.279 48.4893 143.172 48.404C143.087 48.2973 143.012 48.148 142.948 47.956C142.905 47.764 142.873 47.4973 142.852 47.156C142.809 46.772 142.777 46.2173 142.756 45.492C142.735 44.7453 142.713 43.7853 142.692 42.612C142.692 41.4387 142.681 40.02 142.66 38.356C142.66 36.6707 142.66 34.6973 142.66 32.436C142.66 31.5613 142.767 30.7187 142.98 29.908C143.193 29.076 143.577 28.3507 144.132 27.732C144.687 27.092 145.433 26.58 146.372 26.196C147.332 25.812 148.548 25.62 150.02 25.62C151.065 25.62 152.079 25.7373 153.06 25.972C154.063 26.2067 154.948 26.612 155.716 27.188C156.484 27.764 157.103 28.5427 157.572 29.524C158.041 30.5053 158.276 31.732 158.276 33.204C158.276 35.1667 157.849 36.692 156.996 37.78C156.164 38.8467 155.012 39.604 153.54 40.052L157.828 45.94C158.212 46.452 158.404 46.9747 158.404 47.508C158.404 47.9347 158.255 48.2653 157.956 48.5C157.679 48.756 157.327 48.884 156.9 48.884C156.431 48.884 156.025 48.756 155.684 48.5C155.343 48.2227 155.023 47.8707 154.724 47.444L150.052 40.628ZM155.076 33.172C155.076 31.7 154.628 30.612 153.732 29.908C152.857 29.1827 151.46 28.82 149.54 28.82C148.836 28.82 148.249 28.884 147.78 29.012C147.311 29.1187 146.937 29.332 146.66 29.652C146.383 29.972 146.18 30.42 146.052 30.996C145.945 31.5507 145.892 32.2653 145.892 33.14C145.892 33.7587 145.892 34.484 145.892 35.316C145.892 36.148 145.903 36.9053 145.924 37.588C146.415 37.6093 146.959 37.62 147.556 37.62C148.175 37.62 148.751 37.62 149.284 37.62C149.881 37.62 150.511 37.588 151.172 37.524C151.855 37.4387 152.484 37.2467 153.06 36.948C153.636 36.628 154.116 36.18 154.5 35.604C154.884 35.0067 155.076 34.196 155.076 33.172ZM174.312 48.5C173.118 48.5 172.158 48.404 171.432 48.212C170.707 48.02 170.142 47.7533 169.736 47.412C169.352 47.0493 169.086 46.612 168.936 46.1C168.808 45.588 168.712 45.012 168.648 44.372C168.584 43.6253 168.531 42.644 168.488 41.428C168.467 40.1907 168.456 38.9107 168.456 37.588C168.456 36.948 168.456 36.276 168.456 35.572C168.478 34.8467 168.488 34.1427 168.488 33.46C168.51 32.756 168.531 32.1053 168.552 31.508C168.574 30.9107 168.606 30.3987 168.648 29.972C168.712 29.3107 168.819 28.7133 168.968 28.18C169.118 27.6467 169.395 27.188 169.8 26.804C170.227 26.42 170.814 26.132 171.56 25.94C172.328 25.7267 173.342 25.62 174.6 25.62C177.459 25.62 179.592 26.1533 181 27.22C182.43 28.2653 183.144 29.7587 183.144 31.7C183.144 32.7027 182.92 33.6307 182.472 34.484C182.046 35.3373 181.299 35.9773 180.232 36.404C180.83 36.5107 181.374 36.7347 181.864 37.076C182.355 37.4173 182.771 37.8333 183.112 38.324C183.475 38.7933 183.742 39.3267 183.912 39.924C184.104 40.5 184.2 41.0867 184.2 41.684C184.2 42.452 184.04 43.2413 183.72 44.052C183.4 44.8413 182.856 45.5667 182.088 46.228C181.32 46.8893 180.296 47.4333 179.016 47.86C177.758 48.2867 176.19 48.5 174.312 48.5ZM181 41.588C181 40.82 180.819 40.2013 180.456 39.732C180.115 39.2627 179.667 38.9107 179.112 38.676C178.558 38.42 177.939 38.2493 177.256 38.164C176.574 38.0787 175.891 38.036 175.208 38.036C174.675 38.036 174.12 38.036 173.544 38.036C172.968 38.036 172.435 38.0467 171.944 38.068C171.923 38.516 171.902 38.9747 171.88 39.444C171.859 39.9133 171.838 40.3613 171.816 40.788C171.816 41.1933 171.816 41.556 171.816 41.876C171.816 42.1747 171.816 42.388 171.816 42.516C171.816 43.092 171.859 43.572 171.944 43.956C172.03 44.34 172.19 44.6493 172.424 44.884C172.659 45.1187 172.99 45.2893 173.416 45.396C173.864 45.4813 174.43 45.524 175.112 45.524C176.99 45.524 178.44 45.1933 179.464 44.532C180.488 43.8707 181 42.8893 181 41.588ZM175.08 28.66C174.376 28.66 173.8 28.724 173.352 28.852C172.926 28.9587 172.595 29.108 172.36 29.3C172.147 29.492 171.998 29.7267 171.912 30.004C171.848 30.2813 171.816 30.58 171.816 30.9V35.38C172.115 35.4013 172.424 35.412 172.744 35.412C173.086 35.412 173.406 35.412 173.704 35.412C174.472 35.412 175.219 35.3587 175.944 35.252C176.691 35.1453 177.363 34.964 177.96 34.708C178.558 34.452 179.038 34.1 179.4 33.652C179.763 33.204 179.944 32.628 179.944 31.924C179.944 30.964 179.55 30.1853 178.76 29.588C177.992 28.9693 176.766 28.66 175.08 28.66ZM187.881 46.516C187.839 45.748 187.807 44.948 187.785 44.116C187.785 43.284 187.775 42.388 187.753 41.428C187.732 40.468 187.721 39.4333 187.721 38.324C187.721 37.1933 187.721 35.9347 187.721 34.548C187.721 33.0333 187.732 31.7427 187.753 30.676C187.775 29.588 187.839 28.7027 187.945 28.02C188.052 27.3373 188.212 26.836 188.425 26.516C188.66 26.196 188.969 26.036 189.353 26.036C189.545 26.036 189.727 26.0573 189.897 26.1C190.068 26.1427 190.217 26.2387 190.345 26.388C190.473 26.516 190.58 26.7187 190.665 26.996C190.772 27.252 190.836 27.5933 190.857 28.02C190.9 28.788 190.932 29.4707 190.953 30.068C190.975 30.6653 190.996 31.2627 191.017 31.86C191.039 32.436 191.049 33.044 191.049 33.684C191.049 34.3027 191.049 35.0067 191.049 35.796C191.049 36.756 191.049 37.6733 191.049 38.548C191.049 39.4227 191.039 40.2867 191.017 41.14C190.996 41.9933 190.975 42.8573 190.953 43.732C190.932 44.6067 190.9 45.524 190.857 46.484C190.836 46.996 190.783 47.3907 190.697 47.668C190.612 47.9453 190.505 48.1587 190.377 48.308C190.249 48.4573 190.1 48.5427 189.929 48.564C189.759 48.6067 189.567 48.628 189.353 48.628C188.969 48.628 188.639 48.5 188.361 48.244C188.084 47.9667 187.924 47.3907 187.881 46.516ZM198.734 39.572C198.734 40.2547 198.734 40.8627 198.734 41.396C198.734 41.908 198.723 42.3987 198.702 42.868C198.702 43.3373 198.691 43.8067 198.67 44.276C198.648 44.7453 198.627 45.268 198.606 45.844C200.078 45.6733 201.23 45.5347 202.062 45.428C202.894 45.3213 203.544 45.236 204.014 45.172C204.504 45.108 204.878 45.0653 205.134 45.044C205.411 45.0227 205.731 45.012 206.094 45.012C207.032 45.012 207.502 45.4707 207.502 46.388C207.502 46.7507 207.31 47.06 206.926 47.316C206.563 47.572 206.094 47.796 205.518 47.988C204.963 48.1587 204.334 48.308 203.63 48.436C202.947 48.5427 202.275 48.6173 201.614 48.66C200.974 48.724 200.387 48.7667 199.854 48.788C199.342 48.8093 198.979 48.82 198.766 48.82C197.998 48.82 197.4 48.7667 196.974 48.66C196.547 48.5747 196.227 48.2973 196.014 47.828C195.8 47.3373 195.662 46.6013 195.598 45.62C195.555 44.6387 195.534 43.252 195.534 41.46C195.534 39.732 195.534 38.196 195.534 36.852C195.534 35.508 195.544 34.3027 195.566 33.236C195.587 32.1693 195.598 31.22 195.598 30.388C195.619 29.556 195.651 28.7987 195.694 28.116C195.736 27.2413 195.886 26.676 196.142 26.42C196.398 26.1427 196.718 26.004 197.102 26.004C197.315 26.004 197.496 26.0253 197.646 26.068C197.816 26.0893 197.966 26.1747 198.094 26.324C198.222 26.4733 198.318 26.6867 198.382 26.964C198.467 27.2413 198.52 27.636 198.542 28.148C198.627 30.0253 198.68 31.8813 198.702 33.716C198.723 35.5507 198.734 37.5027 198.734 39.572ZM213.585 39.572C213.585 40.2547 213.585 40.8627 213.585 41.396C213.585 41.908 213.574 42.3987 213.553 42.868C213.553 43.3373 213.542 43.8067 213.521 44.276C213.5 44.7453 213.478 45.268 213.457 45.844C214.929 45.6733 216.081 45.5347 216.913 45.428C217.745 45.3213 218.396 45.236 218.865 45.172C219.356 45.108 219.729 45.0653 219.985 45.044C220.262 45.0227 220.582 45.012 220.945 45.012C221.884 45.012 222.353 45.4707 222.353 46.388C222.353 46.7507 222.161 47.06 221.777 47.316C221.414 47.572 220.945 47.796 220.369 47.988C219.814 48.1587 219.185 48.308 218.481 48.436C217.798 48.5427 217.126 48.6173 216.465 48.66C215.825 48.724 215.238 48.7667 214.705 48.788C214.193 48.8093 213.83 48.82 213.617 48.82C212.849 48.82 212.252 48.7667 211.825 48.66C211.398 48.5747 211.078 48.2973 210.865 47.828C210.652 47.3373 210.513 46.6013 210.449 45.62C210.406 44.6387 210.385 43.252 210.385 41.46C210.385 39.732 210.385 38.196 210.385 36.852C210.385 35.508 210.396 34.3027 210.417 33.236C210.438 32.1693 210.449 31.22 210.449 30.388C210.47 29.556 210.502 28.7987 210.545 28.116C210.588 27.2413 210.737 26.676 210.993 26.42C211.249 26.1427 211.569 26.004 211.953 26.004C212.166 26.004 212.348 26.0253 212.497 26.068C212.668 26.0893 212.817 26.1747 212.945 26.324C213.073 26.4733 213.169 26.6867 213.233 26.964C213.318 27.2413 213.372 27.636 213.393 28.148C213.478 30.0253 213.532 31.8813 213.553 33.716C213.574 35.5507 213.585 37.5027 213.585 39.572Z" fill="#275051"/>
<defs>
<filter id="filter0_i_1_52" x="4.3811" y="4" width="241.214" height="68.3182" filterUnits="userSpaceOnUse" color-interpolation-filters="sRGB">
<feFlood flood-opacity="0" result="BackgroundImageFix"/>
<feBlend mode="normal" in="SourceGraphic" in2="BackgroundImageFix" result="shape"/>
<feColorMatrix in="SourceAlpha" type="matrix" values="0 0 0 0 0 0 0 0 0 0 0 0 0 0 0 0 0 0 127 0" result="hardAlpha"/>
<feOffset dy="2.63636"/>
<feGaussianBlur stdDeviation="0.659091"/>
<feComposite in2="hardAlpha" operator="arithmetic" k2="-1" k3="1"/>
<feColorMatrix type="matrix" values="0 0 0 0 1 0 0 0 0 1 0 0 0 0 1 0 0 0 0.2 0"/>
<feBlend mode="normal" in2="shape" result="effect1_innerShadow_1_52"/>
</filter>
</defs>
</svg>
