<svg width="250" height="75" viewBox="0 0 250 75" fill="none" xmlns="http://www.w3.org/2000/svg">
<path d="M2.446 67.7439L10.813 6.01666C11.1231 3.72903 13.0762 2.02273 15.3848 2.02273H234.099C236.394 2.02273 238.34 3.70936 238.666 5.98093L247.525 67.7082C247.924 70.4885 245.767 72.9773 242.958 72.9773H7.01783C4.22352 72.9773 2.07067 70.5129 2.446 67.7439Z" fill="#FFF0D1"/>
<path d="M2.446 67.7439L10.813 6.01666C11.1231 3.72903 13.0762 2.02273 15.3848 2.02273H234.099C236.394 2.02273 238.34 3.70936 238.666 5.98093L247.525 67.7082C247.924 70.4885 245.767 72.9773 242.958 72.9773H7.01783C4.22352 72.9773 2.07067 70.5129 2.446 67.7439Z" fill="#FF8000" fill-opacity="0.2"/>
<path d="M2.446 67.7439L10.813 6.01666C11.1231 3.72903 13.0762 2.02273 15.3848 2.02273H234.099C236.394 2.02273 238.34 3.70936 238.666 5.98093L247.525 67.7082C247.924 70.4885 245.767 72.9773 242.958 72.9773H7.01783C4.22352 72.9773 2.07067 70.5129 2.446 67.7439Z" stroke="#3B0300" stroke-width="3.95455"/>
<g filter="url(#filter0_i_1_81)">
<path d="M233.528 7.29546H15.9606L7.77228 67.7045H242.198L233.528 7.29546ZM242.306 68.4573L242.306 68.4558L242.306 68.4573Z" stroke="#780800" stroke-width="6.59091"/>
</g>
<path d="M80.232 25.844C80.936 25.844 81.64 25.908 82.344 26.036C83.0693 26.1427 83.72 26.324 84.296 26.58C84.872 26.8147 85.3413 27.1133 85.704 27.476C86.088 27.8173 86.28 28.2227 86.28 28.692C86.28 29.1827 86.152 29.556 85.896 29.812C85.64 30.068 85.32 30.196 84.936 30.196C84.5733 30.196 84.2533 30.1427 83.976 30.036C83.6987 29.908 83.3787 29.7693 83.016 29.62C82.6747 29.4707 82.2587 29.3427 81.768 29.236C81.2773 29.108 80.6267 29.044 79.816 29.044C79.0053 29.044 78.2267 29.2573 77.48 29.684C76.7547 30.0893 76.1147 30.6653 75.56 31.412C75.0267 32.1373 74.6 33.0013 74.28 34.004C73.96 35.0067 73.8 36.0947 73.8 37.268C73.8 38.7187 73.9813 39.9667 74.344 41.012C74.728 42.0573 75.2187 42.9213 75.816 43.604C76.4133 44.2653 77.0853 44.7667 77.832 45.108C78.6 45.428 79.368 45.588 80.136 45.588C81.0533 45.588 81.8213 45.492 82.44 45.3C83.0587 45.108 83.5813 44.8947 84.008 44.66C84.456 44.4253 84.84 44.212 85.16 44.02C85.48 43.828 85.7893 43.732 86.088 43.732C86.4507 43.732 86.7387 43.8387 86.952 44.052C87.1653 44.244 87.272 44.596 87.272 45.108C87.272 45.5347 87.1013 45.972 86.76 46.42C86.44 46.8467 85.96 47.2413 85.32 47.604C84.7013 47.9453 83.9547 48.2333 83.08 48.468C82.2053 48.6813 81.224 48.788 80.136 48.788C78.9413 48.788 77.7467 48.5533 76.552 48.084C75.3787 47.6147 74.3227 46.9213 73.384 46.004C72.4667 45.0653 71.72 43.9027 71.144 42.516C70.568 41.108 70.28 39.476 70.28 37.62C70.28 35.764 70.536 34.1107 71.048 32.66C71.5813 31.2093 72.296 29.9827 73.192 28.98C74.1093 27.956 75.1653 27.1773 76.36 26.644C77.576 26.1107 78.8667 25.844 80.232 25.844ZM103.804 46.868C103.591 46.356 103.356 45.7693 103.1 45.108C102.866 44.4253 102.61 43.7107 102.332 42.964C101.692 42.9853 101.02 43.0067 100.316 43.028C99.6123 43.028 98.8976 43.028 98.1722 43.028C97.2549 43.028 96.4229 43.028 95.6762 43.028C94.9296 43.028 94.2469 43.0173 93.6283 42.996C93.3722 43.7427 93.1269 44.4467 92.8923 45.108C92.6576 45.7693 92.4336 46.356 92.2202 46.868C91.7936 47.956 91.1749 48.5 90.3642 48.5C90.0656 48.5 89.7776 48.404 89.5002 48.212C89.2442 48.02 89.1162 47.7427 89.1162 47.38C89.1162 47.0173 89.1802 46.548 89.3082 45.972C89.4362 45.3747 89.5962 44.7453 89.7882 44.084C90.0016 43.4013 90.2256 42.708 90.4602 42.004C90.6949 41.2787 90.9189 40.6067 91.1322 39.988C91.3456 39.3053 91.6442 38.4413 92.0282 37.396C92.4336 36.3293 92.8602 35.22 93.3082 34.068C93.7562 32.916 94.2042 31.7853 94.6522 30.676C95.1003 29.5453 95.5056 28.564 95.8682 27.732C95.9536 27.5187 96.0603 27.284 96.1883 27.028C96.3163 26.7507 96.4656 26.4947 96.6363 26.26C96.8282 26.0253 97.0309 25.8227 97.2443 25.652C97.4789 25.4813 97.7349 25.396 98.0122 25.396C98.2896 25.396 98.5456 25.492 98.7803 25.684C99.0149 25.8547 99.2176 26.068 99.3883 26.324C99.5803 26.58 99.7403 26.8467 99.8682 27.124C100.018 27.4013 100.135 27.6467 100.22 27.86C100.562 28.7133 100.946 29.6947 101.372 30.804C101.82 31.9133 102.258 33.0333 102.684 34.164C103.132 35.2947 103.548 36.372 103.932 37.396C104.316 38.42 104.626 39.284 104.86 39.988C105.052 40.6067 105.266 41.268 105.5 41.972C105.756 42.676 105.991 43.3693 106.204 44.052C106.418 44.7347 106.588 45.3747 106.716 45.972C106.866 46.548 106.94 47.0173 106.94 47.38C106.94 47.7427 106.802 48.02 106.524 48.212C106.268 48.404 105.991 48.5 105.692 48.5C105.308 48.5 104.956 48.372 104.636 48.116C104.316 47.8387 104.039 47.4227 103.804 46.868ZM98.1403 39.828C98.6522 39.828 99.1643 39.8387 99.6763 39.86C100.188 39.86 100.7 39.8707 101.212 39.892C100.956 39.1453 100.7 38.3987 100.444 37.652C100.188 36.9053 99.9429 36.1907 99.7083 35.508C99.4949 34.8253 99.2923 34.196 99.1003 33.62C98.9296 33.0227 98.7802 32.5 98.6523 32.052C98.5669 31.7747 98.4709 31.5507 98.3643 31.38C98.2576 31.2093 98.1189 31.124 97.9482 31.124C97.7776 31.124 97.6389 31.22 97.5323 31.412C97.4256 31.5827 97.3296 31.8067 97.2443 32.084C96.9883 32.9587 96.6256 34.1 96.1562 35.508C95.7083 36.8947 95.2283 38.356 94.7162 39.892C95.2923 39.8707 95.8683 39.86 96.4443 39.86C97.0203 39.8387 97.5856 39.828 98.1403 39.828ZM122.17 46.996C121.487 46.0573 120.836 45.1293 120.217 44.212C119.62 43.2733 118.969 42.2493 118.266 41.14C117.583 40.0307 116.793 38.804 115.898 37.46C115.023 36.0947 113.967 34.5053 112.729 32.692C112.729 34.292 112.729 35.732 112.729 37.012C112.729 38.2707 112.719 39.444 112.697 40.532C112.676 41.62 112.655 42.644 112.633 43.604C112.612 44.564 112.58 45.524 112.537 46.484C112.516 46.996 112.463 47.3907 112.377 47.668C112.313 47.9453 112.217 48.1587 112.089 48.308C111.961 48.4573 111.812 48.5427 111.641 48.564C111.492 48.6067 111.311 48.628 111.097 48.628C110.713 48.628 110.393 48.5 110.137 48.244C109.881 47.9667 109.732 47.3907 109.689 46.516C109.583 44.1693 109.519 41.8227 109.497 39.476C109.497 37.108 109.497 34.6653 109.497 32.148C109.497 30.7187 109.508 29.5987 109.529 28.788C109.572 27.9773 109.647 27.3693 109.753 26.964C109.881 26.5587 110.041 26.3027 110.233 26.196C110.447 26.0893 110.724 26.036 111.065 26.036C111.407 26.036 111.855 26.3027 112.409 26.836C112.964 27.348 113.572 28.0307 114.233 28.884C114.895 29.7373 115.599 30.7187 116.345 31.828C117.113 32.9373 117.871 34.0787 118.618 35.252C119.364 36.4253 120.079 37.588 120.762 38.74C121.466 39.892 122.106 40.9373 122.682 41.876C122.66 40.8733 122.649 39.7747 122.649 38.58C122.649 37.364 122.649 36.02 122.649 34.548C122.649 32.8627 122.66 31.476 122.682 30.388C122.703 29.2787 122.756 28.404 122.842 27.764C122.948 27.124 123.108 26.676 123.321 26.42C123.535 26.164 123.834 26.036 124.218 26.036C124.58 26.036 124.9 26.1533 125.177 26.388C125.455 26.6227 125.615 27.1667 125.657 28.02C125.7 28.788 125.732 29.4707 125.753 30.068C125.775 30.6653 125.796 31.2627 125.818 31.86C125.839 32.436 125.85 33.044 125.85 33.684C125.85 34.3027 125.85 35.0067 125.85 35.796C125.85 36.756 125.85 37.6733 125.85 38.548C125.85 39.4227 125.839 40.2867 125.818 41.14C125.796 41.9933 125.775 42.8573 125.753 43.732C125.732 44.6067 125.7 45.524 125.657 46.484C125.636 46.996 125.583 47.3907 125.497 47.668C125.434 47.9453 125.338 48.1587 125.209 48.308C125.081 48.4573 124.932 48.5427 124.761 48.564C124.612 48.6067 124.431 48.628 124.218 48.628C123.855 48.628 123.546 48.5213 123.29 48.308C123.034 48.0947 122.66 47.6573 122.17 46.996ZM139.317 25.844C140.021 25.844 140.725 25.908 141.429 26.036C142.154 26.1427 142.805 26.324 143.381 26.58C143.957 26.8147 144.426 27.1133 144.789 27.476C145.173 27.8173 145.365 28.2227 145.365 28.692C145.365 29.1827 145.237 29.556 144.981 29.812C144.725 30.068 144.405 30.196 144.021 30.196C143.658 30.196 143.338 30.1427 143.061 30.036C142.784 29.908 142.464 29.7693 142.101 29.62C141.76 29.4707 141.344 29.3427 140.853 29.236C140.362 29.108 139.712 29.044 138.901 29.044C138.09 29.044 137.312 29.2573 136.565 29.684C135.84 30.0893 135.2 30.6653 134.645 31.412C134.112 32.1373 133.685 33.0013 133.365 34.004C133.045 35.0067 132.885 36.0947 132.885 37.268C132.885 38.7187 133.066 39.9667 133.429 41.012C133.813 42.0573 134.304 42.9213 134.901 43.604C135.498 44.2653 136.17 44.7667 136.917 45.108C137.685 45.428 138.453 45.588 139.221 45.588C140.138 45.588 140.906 45.492 141.525 45.3C142.144 45.108 142.666 44.8947 143.093 44.66C143.541 44.4253 143.925 44.212 144.245 44.02C144.565 43.828 144.874 43.732 145.173 43.732C145.536 43.732 145.824 43.8387 146.037 44.052C146.25 44.244 146.357 44.596 146.357 45.108C146.357 45.5347 146.186 45.972 145.845 46.42C145.525 46.8467 145.045 47.2413 144.405 47.604C143.786 47.9453 143.04 48.2333 142.165 48.468C141.29 48.6813 140.309 48.788 139.221 48.788C138.026 48.788 136.832 48.5533 135.637 48.084C134.464 47.6147 133.408 46.9213 132.469 46.004C131.552 45.0653 130.805 43.9027 130.229 42.516C129.653 41.108 129.365 39.476 129.365 37.62C129.365 35.764 129.621 34.1107 130.133 32.66C130.666 31.2093 131.381 29.9827 132.277 28.98C133.194 27.956 134.25 27.1773 135.445 26.644C136.661 26.1107 137.952 25.844 139.317 25.844ZM149.673 43.636C149.631 42.9533 149.588 42.0253 149.545 40.852C149.503 39.6787 149.481 38.4733 149.481 37.236C149.481 36.532 149.481 35.8067 149.481 35.06C149.503 34.292 149.524 33.5133 149.545 32.724C149.588 31.1453 149.684 29.908 149.833 29.012C150.004 28.116 150.324 27.444 150.793 26.996C151.284 26.548 151.967 26.2707 152.841 26.164C153.716 26.0573 154.879 26.004 156.329 26.004C156.351 26.004 156.575 26.004 157.001 26.004C157.449 26.004 157.983 26.0147 158.601 26.036C159.22 26.036 159.86 26.0467 160.521 26.068C161.204 26.0893 161.769 26.1107 162.217 26.132C162.687 26.1747 163.06 26.2387 163.337 26.324C163.636 26.388 163.86 26.484 164.009 26.612C164.159 26.7187 164.255 26.8573 164.297 27.028C164.34 27.1773 164.361 27.348 164.361 27.54C164.361 28.0307 164.223 28.3933 163.945 28.628C163.668 28.8413 163.103 28.98 162.249 29.044C161.823 29.0867 161.193 29.1187 160.361 29.14C159.551 29.14 158.719 29.14 157.865 29.14C157.012 29.14 156.244 29.1507 155.561 29.172C154.879 29.172 154.452 29.172 154.281 29.172C153.727 29.1933 153.332 29.3213 153.097 29.556C152.884 29.7693 152.777 30.292 152.777 31.124C152.777 31.316 152.788 31.7853 152.809 32.532C152.852 33.2573 152.873 34.2813 152.873 35.604H155.529C156.66 35.604 157.577 35.6253 158.281 35.668C159.007 35.6893 159.561 35.7533 159.945 35.86C160.351 35.9667 160.628 36.1373 160.777 36.372C160.927 36.6067 161.001 36.916 161.001 37.3C161.001 37.492 160.98 37.6733 160.937 37.844C160.916 37.9933 160.831 38.132 160.681 38.26C160.532 38.3667 160.319 38.4627 160.041 38.548C159.764 38.612 159.369 38.6653 158.857 38.708C158.239 38.7507 157.652 38.7827 157.097 38.804C156.564 38.804 156.031 38.804 155.497 38.804H152.809C152.809 39.124 152.809 39.508 152.809 39.956C152.809 40.404 152.809 40.8627 152.809 41.332C152.809 41.8013 152.809 42.26 152.809 42.708C152.831 43.156 152.852 43.5187 152.873 43.796C152.895 44.1373 152.937 44.4253 153.001 44.66C153.087 44.8947 153.225 45.0867 153.417 45.236C153.631 45.3853 153.929 45.492 154.313 45.556C154.719 45.62 155.252 45.652 155.913 45.652H162.793C163.54 45.652 164.009 45.7907 164.201 46.068C164.393 46.3453 164.489 46.7187 164.489 47.188C164.489 47.572 164.404 47.8707 164.233 48.084C164.063 48.276 163.647 48.4147 162.985 48.5C162.345 48.6067 161.375 48.6707 160.073 48.692C158.793 48.7133 157.023 48.724 154.761 48.724C153.801 48.724 153.012 48.6387 152.393 48.468C151.775 48.2973 151.273 48.0093 150.889 47.604C150.505 47.1987 150.217 46.676 150.025 46.036C149.855 45.3747 149.737 44.5747 149.673 43.636ZM170.876 39.572C170.876 40.2547 170.876 40.8627 170.876 41.396C170.876 41.908 170.866 42.3987 170.844 42.868C170.844 43.3373 170.834 43.8067 170.812 44.276C170.791 44.7453 170.77 45.268 170.748 45.844C172.22 45.6733 173.372 45.5347 174.204 45.428C175.036 45.3213 175.687 45.236 176.156 45.172C176.647 45.108 177.02 45.0653 177.276 45.044C177.554 45.0227 177.874 45.012 178.236 45.012C179.175 45.012 179.644 45.4707 179.644 46.388C179.644 46.7507 179.452 47.06 179.068 47.316C178.706 47.572 178.236 47.796 177.66 47.988C177.106 48.1587 176.476 48.308 175.772 48.436C175.09 48.5427 174.418 48.6173 173.756 48.66C173.116 48.724 172.53 48.7667 171.996 48.788C171.484 48.8093 171.122 48.82 170.908 48.82C170.14 48.82 169.543 48.7667 169.116 48.66C168.69 48.5747 168.37 48.2973 168.156 47.828C167.943 47.3373 167.804 46.6013 167.74 45.62C167.698 44.6387 167.676 43.252 167.676 41.46C167.676 39.732 167.676 38.196 167.676 36.852C167.676 35.508 167.687 34.3027 167.708 33.236C167.73 32.1693 167.74 31.22 167.74 30.388C167.762 29.556 167.794 28.7987 167.836 28.116C167.879 27.2413 168.028 26.676 168.284 26.42C168.54 26.1427 168.86 26.004 169.244 26.004C169.458 26.004 169.639 26.0253 169.788 26.068C169.959 26.0893 170.108 26.1747 170.236 26.324C170.364 26.4733 170.46 26.6867 170.524 26.964C170.61 27.2413 170.663 27.636 170.684 28.148C170.77 30.0253 170.823 31.8813 170.844 33.716C170.866 35.5507 170.876 37.5027 170.876 39.572Z" fill="#3D0300"/>
<defs>
<filter id="filter0_i_1_81" x="4.3811" y="4" width="241.214" height="68.3182" filterUnits="userSpaceOnUse" color-interpolation-filters="sRGB">
<feFlood flood-opacity="0" result="BackgroundImageFix"/>
<feBlend mode="normal" in="SourceGraphic" in2="BackgroundImageFix" result="shape"/>
<feColorMatrix in="SourceAlpha" type="matrix" values="0 0 0 0 0 0 0 0 0 0 0 0 0 0 0 0 0 0 127 0" result="hardAlpha"/>
<feOffset dy="2.63636"/>
<feGaussianBlur stdDeviation="0.659091"/>
<feComposite in2="hardAlpha" operator="arithmetic" k2="-1" k3="1"/>
<feColorMatrix type="matrix" values="0 0 0 0 1 0 0 0 0 1 0 0 0 0 1 0 0 0 0.2 0"/>
<feBlend mode="normal" in2="shape" result="effect1_innerShadow_1_81"/>
</filter>
</defs>
</svg>
