<svg width="250" height="75" viewBox="0 0 250 75" fill="none" xmlns="http://www.w3.org/2000/svg">
<path d="M2.446 7.25606L10.813 68.9833C11.1231 71.271 13.0762 72.9773 15.3848 72.9773H234.099C236.394 72.9773 238.34 71.2906 238.666 69.0191L247.525 7.2918C247.924 4.51145 245.767 2.02273 242.958 2.02273H7.01783C4.22352 2.02273 2.07067 4.48707 2.446 7.25606Z" fill="#FFF0D1"/>
<path d="M2.446 7.25606L10.813 68.9833C11.1231 71.271 13.0762 72.9773 15.3848 72.9773H234.099C236.394 72.9773 238.34 71.2906 238.666 69.0191L247.525 7.2918C247.924 4.51145 245.767 2.02273 242.958 2.02273H7.01783C4.22352 2.02273 2.07067 4.48707 2.446 7.25606Z" fill="#661100" fill-opacity="0.3"/>
<path d="M2.446 7.25606L10.813 68.9833C11.1231 71.271 13.0762 72.9773 15.3848 72.9773H234.099C236.394 72.9773 238.34 71.2906 238.666 69.0191L247.525 7.2918C247.924 4.51145 245.767 2.02273 242.958 2.02273H7.01783C4.22352 2.02273 2.07067 4.48707 2.446 7.25606Z" stroke="#003D02" stroke-width="3.95455"/>
<g filter="url(#filter0_i_1_85)">
<path d="M233.528 67.7045H15.9606L7.77228 7.29545H242.198L233.528 67.7045ZM242.306 6.54271L242.306 6.54423L242.306 6.54271Z" stroke="#007804" stroke-width="6.59091"/>
</g>
<path d="M71.232 25.844C71.936 25.844 72.64 25.908 73.344 26.036C74.0693 26.1427 74.72 26.324 75.296 26.58C75.872 26.8147 76.3413 27.1133 76.704 27.476C77.088 27.8173 77.28 28.2227 77.28 28.692C77.28 29.1827 77.152 29.556 76.896 29.812C76.64 30.068 76.32 30.196 75.936 30.196C75.5733 30.196 75.2533 30.1427 74.976 30.036C74.6987 29.908 74.3787 29.7693 74.016 29.62C73.6747 29.4707 73.2587 29.3427 72.768 29.236C72.2773 29.108 71.6267 29.044 70.816 29.044C70.0053 29.044 69.2267 29.2573 68.48 29.684C67.7547 30.0893 67.1147 30.6653 66.56 31.412C66.0267 32.1373 65.6 33.0013 65.28 34.004C64.96 35.0067 64.8 36.0947 64.8 37.268C64.8 38.7187 64.9813 39.9667 65.344 41.012C65.728 42.0573 66.2187 42.9213 66.816 43.604C67.4133 44.2653 68.0853 44.7667 68.832 45.108C69.6 45.428 70.368 45.588 71.136 45.588C72.0533 45.588 72.8213 45.492 73.44 45.3C74.0587 45.108 74.5813 44.8947 75.008 44.66C75.456 44.4253 75.84 44.212 76.16 44.02C76.48 43.828 76.7893 43.732 77.088 43.732C77.4507 43.732 77.7387 43.8387 77.952 44.052C78.1653 44.244 78.272 44.596 78.272 45.108C78.272 45.5347 78.1013 45.972 77.76 46.42C77.44 46.8467 76.96 47.2413 76.32 47.604C75.7013 47.9453 74.9547 48.2333 74.08 48.468C73.2053 48.6813 72.224 48.788 71.136 48.788C69.9413 48.788 68.7467 48.5533 67.552 48.084C66.3787 47.6147 65.3227 46.9213 64.384 46.004C63.4667 45.0653 62.72 43.9027 62.144 42.516C61.568 41.108 61.28 39.476 61.28 37.62C61.28 35.764 61.536 34.1107 62.048 32.66C62.5813 31.2093 63.296 29.9827 64.192 28.98C65.1093 27.956 66.1653 27.1773 67.36 26.644C68.576 26.1107 69.8667 25.844 71.232 25.844ZM89.3472 48.82C88.0672 48.82 86.8619 48.564 85.7312 48.052C84.6219 47.54 83.6512 46.804 82.8192 45.844C81.9872 44.8627 81.3259 43.668 80.8352 42.26C80.3659 40.852 80.1312 39.252 80.1312 37.46C80.1312 35.7747 80.3339 34.228 80.7392 32.82C81.1659 31.412 81.7846 30.196 82.5952 29.172C83.4272 28.148 84.4512 27.3587 85.6673 26.804C86.8833 26.228 88.2913 25.94 89.8913 25.94C91.1926 25.94 92.4299 26.1747 93.6033 26.644C94.7766 27.1133 95.8006 27.8173 96.6753 28.756C97.5713 29.6947 98.2753 30.868 98.7873 32.276C99.2993 33.684 99.5553 35.3267 99.5553 37.204C99.5553 38.7613 99.3419 40.244 98.9153 41.652C98.5099 43.06 97.8806 44.2973 97.0273 45.364C96.1953 46.4093 95.1393 47.252 93.8593 47.892C92.5793 48.5107 91.0752 48.82 89.3472 48.82ZM89.4113 45.812C90.5846 45.812 91.6086 45.5773 92.4833 45.108C93.3579 44.6173 94.0833 43.9773 94.6593 43.188C95.2353 42.3987 95.6619 41.492 95.9393 40.468C96.2166 39.4227 96.3553 38.356 96.3553 37.268C96.3553 35.9453 96.1739 34.772 95.8113 33.748C95.4699 32.7027 95.0006 31.828 94.4033 31.124C93.8059 30.42 93.1126 29.8867 92.3233 29.524C91.5339 29.14 90.6912 28.948 89.7952 28.948C88.7286 28.948 87.7899 29.172 86.9792 29.62C86.1899 30.068 85.5179 30.676 84.9633 31.444C84.4299 32.212 84.0246 33.1187 83.7473 34.164C83.4699 35.188 83.3312 36.2867 83.3312 37.46C83.3312 38.7187 83.4912 39.8707 83.8112 40.916C84.1312 41.94 84.5579 42.8147 85.0912 43.54C85.6459 44.2653 86.2966 44.8307 87.0433 45.236C87.7899 45.62 88.5793 45.812 89.4113 45.812ZM115.732 46.996C115.049 46.0573 114.399 45.1293 113.78 44.212C113.183 43.2733 112.532 42.2493 111.828 41.14C111.145 40.0307 110.356 38.804 109.46 37.46C108.585 36.0947 107.529 34.5053 106.292 32.692C106.292 34.292 106.292 35.732 106.292 37.012C106.292 38.2707 106.281 39.444 106.26 40.532C106.239 41.62 106.217 42.644 106.196 43.604C106.175 44.564 106.143 45.524 106.1 46.484C106.079 46.996 106.025 47.3907 105.94 47.668C105.876 47.9453 105.78 48.1587 105.652 48.308C105.524 48.4573 105.375 48.5427 105.204 48.564C105.055 48.6067 104.873 48.628 104.66 48.628C104.276 48.628 103.956 48.5 103.7 48.244C103.444 47.9667 103.295 47.3907 103.252 46.516C103.145 44.1693 103.081 41.8227 103.06 39.476C103.06 37.108 103.06 34.6653 103.06 32.148C103.06 30.7187 103.071 29.5987 103.092 28.788C103.135 27.9773 103.209 27.3693 103.316 26.964C103.444 26.5587 103.604 26.3027 103.796 26.196C104.009 26.0893 104.287 26.036 104.628 26.036C104.969 26.036 105.417 26.3027 105.972 26.836C106.527 27.348 107.135 28.0307 107.796 28.884C108.457 29.7373 109.161 30.7187 109.908 31.828C110.676 32.9373 111.433 34.0787 112.18 35.252C112.927 36.4253 113.641 37.588 114.324 38.74C115.028 39.892 115.668 40.9373 116.244 41.876C116.223 40.8733 116.212 39.7747 116.212 38.58C116.212 37.364 116.212 36.02 116.212 34.548C116.212 32.8627 116.223 31.476 116.244 30.388C116.265 29.2787 116.319 28.404 116.404 27.764C116.511 27.124 116.671 26.676 116.884 26.42C117.097 26.164 117.396 26.036 117.78 26.036C118.143 26.036 118.463 26.1533 118.74 26.388C119.017 26.6227 119.177 27.1667 119.22 28.02C119.263 28.788 119.295 29.4707 119.316 30.068C119.337 30.6653 119.359 31.2627 119.38 31.86C119.401 32.436 119.412 33.044 119.412 33.684C119.412 34.3027 119.412 35.0067 119.412 35.796C119.412 36.756 119.412 37.6733 119.412 38.548C119.412 39.4227 119.401 40.2867 119.38 41.14C119.359 41.9933 119.337 42.8573 119.316 43.732C119.295 44.6067 119.263 45.524 119.22 46.484C119.199 46.996 119.145 47.3907 119.06 47.668C118.996 47.9453 118.9 48.1587 118.772 48.308C118.644 48.4573 118.495 48.5427 118.324 48.564C118.175 48.6067 117.993 48.628 117.78 48.628C117.417 48.628 117.108 48.5213 116.852 48.308C116.596 48.0947 116.223 47.6573 115.732 46.996ZM123.567 33.62C123.567 31.828 123.631 30.4307 123.759 29.428C123.887 28.404 124.154 27.636 124.559 27.124C124.965 26.612 125.541 26.3027 126.287 26.196C127.034 26.068 128.015 26.004 129.231 26.004C129.914 26.004 130.533 26.004 131.087 26.004C131.642 26.004 132.175 26.0147 132.688 26.036C133.221 26.036 133.743 26.0467 134.255 26.068C134.789 26.0893 135.365 26.1107 135.983 26.132C136.495 26.1747 136.89 26.2387 137.167 26.324C137.445 26.388 137.658 26.484 137.807 26.612C137.957 26.74 138.042 26.8893 138.063 27.06C138.106 27.2307 138.128 27.4227 138.128 27.636C138.128 28.02 137.989 28.34 137.712 28.596C137.455 28.852 136.89 29.0013 136.016 29.044C135.482 29.0653 134.959 29.0867 134.447 29.108C133.957 29.1293 133.391 29.1507 132.751 29.172C132.133 29.172 131.429 29.1827 130.639 29.204C129.85 29.204 128.901 29.204 127.791 29.204C127.407 29.204 127.141 29.3427 126.991 29.62C126.842 29.876 126.767 30.2067 126.767 30.612C126.767 30.932 126.767 31.252 126.767 31.572C126.789 31.892 126.799 32.244 126.799 32.628C126.821 33.012 126.831 33.4493 126.831 33.94C126.853 34.4093 126.863 34.964 126.863 35.604C127.653 35.604 128.335 35.6147 128.911 35.636C129.509 35.636 130.021 35.6467 130.447 35.668C130.895 35.668 131.29 35.6787 131.631 35.7C131.973 35.7213 132.303 35.7427 132.623 35.764C133.498 35.8067 134.063 35.956 134.319 36.212C134.597 36.468 134.735 36.788 134.735 37.172C134.735 37.3853 134.714 37.5773 134.671 37.748C134.65 37.9187 134.565 38.068 134.415 38.196C134.266 38.324 134.053 38.4307 133.775 38.516C133.498 38.6013 133.103 38.6653 132.591 38.708C132.25 38.7293 131.919 38.7507 131.599 38.772C131.301 38.772 130.938 38.7827 130.511 38.804C130.106 38.804 129.615 38.804 129.039 38.804C128.463 38.804 127.738 38.804 126.863 38.804C126.842 40.084 126.831 41.396 126.831 42.74C126.853 44.0627 126.821 45.428 126.735 46.836C126.693 47.668 126.543 48.18 126.287 48.372C126.053 48.5427 125.69 48.628 125.199 48.628C124.73 48.628 124.378 48.532 124.143 48.34C123.909 48.1267 123.77 47.636 123.727 46.868C123.685 46.1853 123.653 45.4387 123.631 44.628C123.631 43.796 123.621 42.8573 123.599 41.812C123.578 40.7453 123.567 39.5507 123.567 38.228C123.567 36.884 123.567 35.348 123.567 33.62ZM141.649 46.516C141.606 45.748 141.574 44.948 141.553 44.116C141.553 43.284 141.542 42.388 141.521 41.428C141.499 40.468 141.489 39.4333 141.489 38.324C141.489 37.1933 141.489 35.9347 141.489 34.548C141.489 33.0333 141.499 31.7427 141.521 30.676C141.542 29.588 141.606 28.7027 141.713 28.02C141.819 27.3373 141.979 26.836 142.193 26.516C142.427 26.196 142.737 26.036 143.121 26.036C143.313 26.036 143.494 26.0573 143.665 26.1C143.835 26.1427 143.985 26.2387 144.113 26.388C144.241 26.516 144.347 26.7187 144.433 26.996C144.539 27.252 144.603 27.5933 144.625 28.02C144.667 28.788 144.699 29.4707 144.721 30.068C144.742 30.6653 144.763 31.2627 144.785 31.86C144.806 32.436 144.817 33.044 144.817 33.684C144.817 34.3027 144.817 35.0067 144.817 35.796C144.817 36.756 144.817 37.6733 144.817 38.548C144.817 39.4227 144.806 40.2867 144.785 41.14C144.763 41.9933 144.742 42.8573 144.721 43.732C144.699 44.6067 144.667 45.524 144.625 46.484C144.603 46.996 144.55 47.3907 144.465 47.668C144.379 47.9453 144.273 48.1587 144.145 48.308C144.017 48.4573 143.867 48.5427 143.697 48.564C143.526 48.6067 143.334 48.628 143.121 48.628C142.737 48.628 142.406 48.5 142.129 48.244C141.851 47.9667 141.691 47.3907 141.649 46.516ZM156.693 40.628C156.395 40.6493 156.085 40.6707 155.765 40.692C155.467 40.692 155.157 40.692 154.837 40.692C154.475 40.692 154.112 40.692 153.749 40.692C153.387 40.692 152.981 40.6707 152.533 40.628V47.124C152.533 47.8067 152.363 48.2333 152.021 48.404C151.701 48.5533 151.296 48.628 150.805 48.628C150.549 48.628 150.347 48.6067 150.197 48.564C150.048 48.5427 149.92 48.4893 149.813 48.404C149.728 48.2973 149.653 48.148 149.589 47.956C149.547 47.764 149.515 47.4973 149.493 47.156C149.451 46.772 149.419 46.2173 149.397 45.492C149.376 44.7453 149.355 43.7853 149.333 42.612C149.333 41.4387 149.323 40.02 149.301 38.356C149.301 36.6707 149.301 34.6973 149.301 32.436C149.301 31.5613 149.408 30.7187 149.621 29.908C149.835 29.076 150.219 28.3507 150.773 27.732C151.328 27.092 152.075 26.58 153.013 26.196C153.973 25.812 155.189 25.62 156.661 25.62C157.707 25.62 158.72 25.7373 159.701 25.972C160.704 26.2067 161.589 26.612 162.357 27.188C163.125 27.764 163.744 28.5427 164.213 29.524C164.683 30.5053 164.917 31.732 164.917 33.204C164.917 35.1667 164.491 36.692 163.637 37.78C162.805 38.8467 161.653 39.604 160.181 40.052L164.469 45.94C164.853 46.452 165.045 46.9747 165.045 47.508C165.045 47.9347 164.896 48.2653 164.597 48.5C164.32 48.756 163.968 48.884 163.541 48.884C163.072 48.884 162.667 48.756 162.325 48.5C161.984 48.2227 161.664 47.8707 161.365 47.444L156.693 40.628ZM161.717 33.172C161.717 31.7 161.269 30.612 160.373 29.908C159.499 29.1827 158.101 28.82 156.181 28.82C155.477 28.82 154.891 28.884 154.421 29.012C153.952 29.1187 153.579 29.332 153.301 29.652C153.024 29.972 152.821 30.42 152.693 30.996C152.587 31.5507 152.533 32.2653 152.533 33.14C152.533 33.7587 152.533 34.484 152.533 35.316C152.533 36.148 152.544 36.9053 152.565 37.588C153.056 37.6093 153.6 37.62 154.197 37.62C154.816 37.62 155.392 37.62 155.925 37.62C156.523 37.62 157.152 37.588 157.813 37.524C158.496 37.4387 159.125 37.2467 159.701 36.948C160.277 36.628 160.757 36.18 161.141 35.604C161.525 35.0067 161.717 34.196 161.717 33.172ZM176.666 43.06C175.685 40.9053 174.81 38.8253 174.042 36.82C173.295 34.7933 172.655 32.9907 172.122 31.412C171.631 34.0573 171.215 36.724 170.874 39.412C170.554 42.1 170.138 44.6707 169.626 47.124C169.498 47.6787 169.263 48.052 168.922 48.244C168.581 48.4147 168.293 48.5 168.058 48.5C167.674 48.5 167.365 48.3827 167.13 48.148C166.917 47.9133 166.81 47.6147 166.81 47.252C166.81 46.7613 166.863 46.0147 166.97 45.012C167.098 43.988 167.247 42.836 167.418 41.556C167.61 40.276 167.823 38.932 168.058 37.524C168.293 36.116 168.527 34.7613 168.762 33.46C169.018 32.1373 169.253 30.9427 169.466 29.876C169.701 28.8093 169.903 27.988 170.074 27.412C170.351 26.4307 170.917 25.94 171.77 25.94C172.282 25.94 172.719 26.196 173.082 26.708C173.445 27.1987 173.829 27.9667 174.234 29.012C174.661 30.036 175.162 31.3373 175.738 32.916C176.335 34.4947 177.103 36.3507 178.042 38.484C178.959 36.3507 179.695 34.5053 180.25 32.948C180.826 31.3693 181.306 30.068 181.69 29.044C182.095 27.9987 182.479 27.2307 182.842 26.74C183.205 26.228 183.653 25.972 184.186 25.972C184.677 25.972 185.05 26.1 185.306 26.356C185.562 26.5907 185.754 26.9533 185.882 27.444C186.031 28.0413 186.213 28.8733 186.426 29.94C186.639 30.9853 186.863 32.1587 187.098 33.46C187.354 34.74 187.599 36.084 187.834 37.492C188.069 38.9 188.282 40.244 188.474 41.524C188.666 42.804 188.815 43.9667 188.922 45.012C189.05 46.036 189.114 46.8253 189.114 47.38C189.114 47.7213 188.997 47.9987 188.762 48.212C188.527 48.404 188.229 48.5 187.866 48.5C187.631 48.5 187.343 48.4147 187.002 48.244C186.661 48.052 186.426 47.6787 186.298 47.124C186.042 45.908 185.807 44.6493 185.594 43.348C185.402 42.0467 185.21 40.7347 185.018 39.412C184.847 38.068 184.677 36.7347 184.506 35.412C184.335 34.068 184.154 32.7347 183.962 31.412C183.685 32.2653 183.365 33.204 183.002 34.228C182.639 35.252 182.255 36.2867 181.85 37.332C181.445 38.356 181.029 39.3693 180.602 40.372C180.175 41.3747 179.759 42.2813 179.354 43.092C179.205 43.3693 179.002 43.5827 178.746 43.732C178.511 43.86 178.266 43.924 178.01 43.924C177.733 43.924 177.466 43.86 177.21 43.732C176.975 43.5827 176.794 43.3587 176.666 43.06Z" fill="#003D02"/>
<defs>
<filter id="filter0_i_1_85" x="4.3811" y="4" width="241.214" height="68.3182" filterUnits="userSpaceOnUse" color-interpolation-filters="sRGB">
<feFlood flood-opacity="0" result="BackgroundImageFix"/>
<feBlend mode="normal" in="SourceGraphic" in2="BackgroundImageFix" result="shape"/>
<feColorMatrix in="SourceAlpha" type="matrix" values="0 0 0 0 0 0 0 0 0 0 0 0 0 0 0 0 0 0 127 0" result="hardAlpha"/>
<feOffset dy="2.63636"/>
<feGaussianBlur stdDeviation="0.659091"/>
<feComposite in2="hardAlpha" operator="arithmetic" k2="-1" k3="1"/>
<feColorMatrix type="matrix" values="0 0 0 0 1 0 0 0 0 1 0 0 0 0 1 0 0 0 0.2 0"/>
<feBlend mode="normal" in2="shape" result="effect1_innerShadow_1_85"/>
</filter>
</defs>
</svg>
