<svg width="250" height="75" viewBox="0 0 250 75" fill="none" xmlns="http://www.w3.org/2000/svg">
<path d="M2.446 7.25606L10.813 68.9833C11.1231 71.271 13.0762 72.9773 15.3848 72.9773H234.099C236.394 72.9773 238.34 71.2906 238.666 69.0191L247.525 7.2918C247.924 4.51145 245.767 2.02273 242.958 2.02273H7.01783C4.22352 2.02273 2.07067 4.48707 2.446 7.25606Z" fill="#FFF0D1"/>
<path d="M2.446 7.25606L10.813 68.9833C11.1231 71.271 13.0762 72.9773 15.3848 72.9773H234.099C236.394 72.9773 238.34 71.2906 238.666 69.0191L247.525 7.2918C247.924 4.51145 245.767 2.02273 242.958 2.02273H7.01783C4.22352 2.02273 2.07067 4.48707 2.446 7.25606Z" fill="#FF8000" fill-opacity="0.2"/>
<path d="M2.446 7.25606L10.813 68.9833C11.1231 71.271 13.0762 72.9773 15.3848 72.9773H234.099C236.394 72.9773 238.34 71.2906 238.666 69.0191L247.525 7.2918C247.924 4.51145 245.767 2.02273 242.958 2.02273H7.01783C4.22352 2.02273 2.07067 4.48707 2.446 7.25606Z" stroke="#163F47" stroke-width="3.95455"/>
<g filter="url(#filter0_i_1_44)">
<path d="M233.528 67.7045H15.9606L7.77228 7.29545H242.198L233.528 67.7045ZM242.306 6.54271L242.306 6.54423L242.306 6.54271Z" stroke="#166A7D" stroke-width="6.59091"/>
</g>
<path d="M41.496 48.82C40.216 48.82 39.0107 48.564 37.88 48.052C36.7707 47.54 35.8 46.804 34.968 45.844C34.136 44.8627 33.4747 43.668 32.984 42.26C32.5147 40.852 32.28 39.252 32.28 37.46C32.28 35.7747 32.4827 34.228 32.888 32.82C33.3147 31.412 33.9333 30.196 34.744 29.172C35.576 28.148 36.6 27.3587 37.816 26.804C39.032 26.228 40.44 25.94 42.04 25.94C43.3413 25.94 44.5787 26.1747 45.752 26.644C46.9253 27.1133 47.9493 27.8173 48.824 28.756C49.72 29.6947 50.424 30.868 50.936 32.276C51.448 33.684 51.704 35.3267 51.704 37.204C51.704 38.7613 51.4907 40.244 51.064 41.652C50.6587 43.06 50.0293 44.2973 49.176 45.364C48.344 46.4093 47.288 47.252 46.008 47.892C44.728 48.5107 43.224 48.82 41.496 48.82ZM41.56 45.812C42.7333 45.812 43.7573 45.5773 44.632 45.108C45.5067 44.6173 46.232 43.9773 46.808 43.188C47.384 42.3987 47.8107 41.492 48.088 40.468C48.3653 39.4227 48.504 38.356 48.504 37.268C48.504 35.9453 48.3227 34.772 47.96 33.748C47.6187 32.7027 47.1493 31.828 46.552 31.124C45.9547 30.42 45.2613 29.8867 44.472 29.524C43.6827 29.14 42.84 28.948 41.944 28.948C40.8773 28.948 39.9387 29.172 39.128 29.62C38.3387 30.068 37.6667 30.676 37.112 31.444C36.5787 32.212 36.1733 33.1187 35.896 34.164C35.6187 35.188 35.48 36.2867 35.48 37.46C35.48 38.7187 35.64 39.8707 35.96 40.916C36.28 41.94 36.7067 42.8147 37.24 43.54C37.7947 44.2653 38.4453 44.8307 39.192 45.236C39.9387 45.62 40.728 45.812 41.56 45.812ZM62.6007 40.628C62.3021 40.6493 61.9928 40.6707 61.6728 40.692C61.3741 40.692 61.0648 40.692 60.7448 40.692C60.3821 40.692 60.0194 40.692 59.6568 40.692C59.2941 40.692 58.8888 40.6707 58.4408 40.628V47.124C58.4408 47.8067 58.2701 48.2333 57.9288 48.404C57.6088 48.5533 57.2034 48.628 56.7127 48.628C56.4567 48.628 56.2541 48.6067 56.1047 48.564C55.9554 48.5427 55.8274 48.4893 55.7207 48.404C55.6354 48.2973 55.5607 48.148 55.4967 47.956C55.4541 47.764 55.4221 47.4973 55.4007 47.156C55.3581 46.772 55.3261 46.2173 55.3047 45.492C55.2834 44.7453 55.2621 43.7853 55.2407 42.612C55.2407 41.4387 55.2301 40.02 55.2087 38.356C55.2087 36.6707 55.2087 34.6973 55.2087 32.436C55.2087 31.5613 55.3154 30.7187 55.5287 29.908C55.7421 29.076 56.1261 28.3507 56.6807 27.732C57.2354 27.092 57.9821 26.58 58.9208 26.196C59.8808 25.812 61.0968 25.62 62.5688 25.62C63.6141 25.62 64.6274 25.7373 65.6088 25.972C66.6114 26.2067 67.4968 26.612 68.2648 27.188C69.0328 27.764 69.6514 28.5427 70.1208 29.524C70.5901 30.5053 70.8248 31.732 70.8248 33.204C70.8248 35.1667 70.3981 36.692 69.5448 37.78C68.7128 38.8467 67.5608 39.604 66.0887 40.052L70.3768 45.94C70.7608 46.452 70.9528 46.9747 70.9528 47.508C70.9528 47.9347 70.8034 48.2653 70.5048 48.5C70.2274 48.756 69.8754 48.884 69.4487 48.884C68.9794 48.884 68.5741 48.756 68.2327 48.5C67.8914 48.2227 67.5714 47.8707 67.2727 47.444L62.6007 40.628ZM67.6248 33.172C67.6248 31.7 67.1768 30.612 66.2808 29.908C65.4061 29.1827 64.0087 28.82 62.0887 28.82C61.3848 28.82 60.7981 28.884 60.3288 29.012C59.8594 29.1187 59.4861 29.332 59.2087 29.652C58.9314 29.972 58.7287 30.42 58.6007 30.996C58.4941 31.5507 58.4408 32.2653 58.4408 33.14C58.4408 33.7587 58.4408 34.484 58.4408 35.316C58.4408 36.148 58.4514 36.9053 58.4727 37.588C58.9634 37.6093 59.5074 37.62 60.1048 37.62C60.7234 37.62 61.2994 37.62 61.8328 37.62C62.4301 37.62 63.0594 37.588 63.7207 37.524C64.4034 37.4387 65.0328 37.2467 65.6088 36.948C66.1848 36.628 66.6648 36.18 67.0487 35.604C67.4328 35.0067 67.6248 34.196 67.6248 33.172ZM80.5575 25.876C82.7548 25.876 84.5148 26.2067 85.8375 26.868C87.1602 27.5293 88.1735 28.404 88.8775 29.492C89.5815 30.58 90.0402 31.8173 90.2535 33.204C90.4882 34.5907 90.6055 35.9987 90.6055 37.428C90.6055 38.9853 90.4028 40.4573 89.9975 41.844C89.6135 43.2307 89.0055 44.4467 88.1735 45.492C87.3628 46.516 86.3175 47.3373 85.0375 47.956C83.7575 48.5533 82.2322 48.852 80.4615 48.852C79.0535 48.852 77.9228 48.7453 77.0695 48.532C76.2375 48.34 75.5868 48.0413 75.1175 47.636C74.6695 47.2307 74.3708 46.7187 74.2215 46.1C74.0722 45.4813 73.9975 44.756 73.9975 43.924V31.892C73.9975 30.9747 74.0722 30.1427 74.2215 29.396C74.3922 28.6493 74.7122 28.02 75.1815 27.508C75.6508 26.9747 76.3122 26.5693 77.1655 26.292C78.0402 26.0147 79.1708 25.876 80.5575 25.876ZM80.6855 45.652C82.0082 45.652 83.0962 45.4173 83.9495 44.948C84.8242 44.4573 85.5175 43.8173 86.0295 43.028C86.5415 42.2387 86.8935 41.3427 87.0855 40.34C87.2988 39.3373 87.4055 38.3133 87.4055 37.268C87.4055 36.308 87.3308 35.348 87.1815 34.388C87.0322 33.4067 86.7228 32.5213 86.2535 31.732C85.7842 30.9427 85.1122 30.3027 84.2375 29.812C83.3628 29.3213 82.2002 29.076 80.7495 29.076C79.4268 29.076 78.5095 29.268 77.9975 29.652C77.4855 30.036 77.2295 30.6227 77.2295 31.412V43.668C77.2295 44.3293 77.4642 44.8307 77.9335 45.172C78.4242 45.492 79.3415 45.652 80.6855 45.652ZM94.322 43.636C94.2793 42.9533 94.2367 42.0253 94.194 40.852C94.1513 39.6787 94.13 38.4733 94.13 37.236C94.13 36.532 94.13 35.8067 94.13 35.06C94.1513 34.292 94.1727 33.5133 94.194 32.724C94.2367 31.1453 94.3327 29.908 94.482 29.012C94.6527 28.116 94.9727 27.444 95.442 26.996C95.9327 26.548 96.6153 26.2707 97.49 26.164C98.3647 26.0573 99.5273 26.004 100.978 26.004C100.999 26.004 101.223 26.004 101.65 26.004C102.098 26.004 102.631 26.0147 103.25 26.036C103.869 26.036 104.509 26.0467 105.17 26.068C105.853 26.0893 106.418 26.1107 106.866 26.132C107.335 26.1747 107.709 26.2387 107.986 26.324C108.285 26.388 108.509 26.484 108.658 26.612C108.807 26.7187 108.903 26.8573 108.946 27.028C108.989 27.1773 109.01 27.348 109.01 27.54C109.01 28.0307 108.871 28.3933 108.594 28.628C108.317 28.8413 107.751 28.98 106.898 29.044C106.471 29.0867 105.842 29.1187 105.01 29.14C104.199 29.14 103.367 29.14 102.514 29.14C101.661 29.14 100.893 29.1507 100.21 29.172C99.5273 29.172 99.1007 29.172 98.93 29.172C98.3753 29.1933 97.9807 29.3213 97.746 29.556C97.5327 29.7693 97.426 30.292 97.426 31.124C97.426 31.316 97.4367 31.7853 97.458 32.532C97.5007 33.2573 97.522 34.2813 97.522 35.604H100.178C101.309 35.604 102.226 35.6253 102.93 35.668C103.655 35.6893 104.21 35.7533 104.594 35.86C104.999 35.9667 105.277 36.1373 105.426 36.372C105.575 36.6067 105.65 36.916 105.65 37.3C105.65 37.492 105.629 37.6733 105.586 37.844C105.565 37.9933 105.479 38.132 105.33 38.26C105.181 38.3667 104.967 38.4627 104.69 38.548C104.413 38.612 104.018 38.6653 103.506 38.708C102.887 38.7507 102.301 38.7827 101.746 38.804C101.213 38.804 100.679 38.804 100.146 38.804H97.458C97.458 39.124 97.458 39.508 97.458 39.956C97.458 40.404 97.458 40.8627 97.458 41.332C97.458 41.8013 97.458 42.26 97.458 42.708C97.4793 43.156 97.5007 43.5187 97.522 43.796C97.5433 44.1373 97.586 44.4253 97.65 44.66C97.7353 44.8947 97.874 45.0867 98.066 45.236C98.2793 45.3853 98.578 45.492 98.962 45.556C99.3673 45.62 99.9007 45.652 100.562 45.652H107.442C108.189 45.652 108.658 45.7907 108.85 46.068C109.042 46.3453 109.138 46.7187 109.138 47.188C109.138 47.572 109.053 47.8707 108.882 48.084C108.711 48.276 108.295 48.4147 107.634 48.5C106.994 48.6067 106.023 48.6707 104.722 48.692C103.442 48.7133 101.671 48.724 99.41 48.724C98.45 48.724 97.6607 48.6387 97.042 48.468C96.4233 48.2973 95.922 48.0093 95.538 47.604C95.154 47.1987 94.866 46.676 94.674 46.036C94.5033 45.3747 94.386 44.5747 94.322 43.636ZM119.717 40.628C119.418 40.6493 119.109 40.6707 118.789 40.692C118.49 40.692 118.181 40.692 117.861 40.692C117.498 40.692 117.136 40.692 116.773 40.692C116.41 40.692 116.005 40.6707 115.557 40.628V47.124C115.557 47.8067 115.386 48.2333 115.045 48.404C114.725 48.5533 114.32 48.628 113.829 48.628C113.573 48.628 113.37 48.6067 113.221 48.564C113.072 48.5427 112.944 48.4893 112.837 48.404C112.752 48.2973 112.677 48.148 112.613 47.956C112.57 47.764 112.538 47.4973 112.517 47.156C112.474 46.772 112.442 46.2173 112.421 45.492C112.4 44.7453 112.378 43.7853 112.357 42.612C112.357 41.4387 112.346 40.02 112.325 38.356C112.325 36.6707 112.325 34.6973 112.325 32.436C112.325 31.5613 112.432 30.7187 112.645 29.908C112.858 29.076 113.242 28.3507 113.797 27.732C114.352 27.092 115.098 26.58 116.037 26.196C116.997 25.812 118.213 25.62 119.685 25.62C120.73 25.62 121.744 25.7373 122.725 25.972C123.728 26.2067 124.613 26.612 125.381 27.188C126.149 27.764 126.768 28.5427 127.237 29.524C127.706 30.5053 127.941 31.732 127.941 33.204C127.941 35.1667 127.514 36.692 126.661 37.78C125.829 38.8467 124.677 39.604 123.205 40.052L127.493 45.94C127.877 46.452 128.069 46.9747 128.069 47.508C128.069 47.9347 127.92 48.2653 127.621 48.5C127.344 48.756 126.992 48.884 126.565 48.884C126.096 48.884 125.69 48.756 125.349 48.5C125.008 48.2227 124.688 47.8707 124.389 47.444L119.717 40.628ZM124.741 33.172C124.741 31.7 124.293 30.612 123.397 29.908C122.522 29.1827 121.125 28.82 119.205 28.82C118.501 28.82 117.914 28.884 117.445 29.012C116.976 29.1187 116.602 29.332 116.325 29.652C116.048 29.972 115.845 30.42 115.717 30.996C115.61 31.5507 115.557 32.2653 115.557 33.14C115.557 33.7587 115.557 34.484 115.557 35.316C115.557 36.148 115.568 36.9053 115.589 37.588C116.08 37.6093 116.624 37.62 117.221 37.62C117.84 37.62 118.416 37.62 118.949 37.62C119.546 37.62 120.176 37.588 120.837 37.524C121.52 37.4387 122.149 37.2467 122.725 36.948C123.301 36.628 123.781 36.18 124.165 35.604C124.549 35.0067 124.741 34.196 124.741 33.172ZM146.697 43.06C145.716 40.9053 144.841 38.8253 144.073 36.82C143.327 34.7933 142.687 32.9907 142.153 31.412C141.663 34.0573 141.247 36.724 140.905 39.412C140.585 42.1 140.169 44.6707 139.657 47.124C139.529 47.6787 139.295 48.052 138.953 48.244C138.612 48.4147 138.324 48.5 138.089 48.5C137.705 48.5 137.396 48.3827 137.161 48.148C136.948 47.9133 136.841 47.6147 136.841 47.252C136.841 46.7613 136.895 46.0147 137.001 45.012C137.129 43.988 137.279 42.836 137.449 41.556C137.641 40.276 137.855 38.932 138.089 37.524C138.324 36.116 138.559 34.7613 138.793 33.46C139.049 32.1373 139.284 30.9427 139.497 29.876C139.732 28.8093 139.935 27.988 140.105 27.412C140.383 26.4307 140.948 25.94 141.801 25.94C142.313 25.94 142.751 26.196 143.113 26.708C143.476 27.1987 143.86 27.9667 144.265 29.012C144.692 30.036 145.193 31.3373 145.769 32.916C146.367 34.4947 147.135 36.3507 148.073 38.484C148.991 36.3507 149.727 34.5053 150.281 32.948C150.857 31.3693 151.337 30.068 151.721 29.044C152.127 27.9987 152.511 27.2307 152.873 26.74C153.236 26.228 153.684 25.972 154.217 25.972C154.708 25.972 155.081 26.1 155.337 26.356C155.593 26.5907 155.785 26.9533 155.913 27.444C156.063 28.0413 156.244 28.8733 156.457 29.94C156.671 30.9853 156.895 32.1587 157.129 33.46C157.385 34.74 157.631 36.084 157.865 37.492C158.1 38.9 158.313 40.244 158.505 41.524C158.697 42.804 158.847 43.9667 158.953 45.012C159.081 46.036 159.145 46.8253 159.145 47.38C159.145 47.7213 159.028 47.9987 158.793 48.212C158.559 48.404 158.26 48.5 157.897 48.5C157.663 48.5 157.375 48.4147 157.033 48.244C156.692 48.052 156.457 47.6787 156.329 47.124C156.073 45.908 155.839 44.6493 155.625 43.348C155.433 42.0467 155.241 40.7347 155.049 39.412C154.879 38.068 154.708 36.7347 154.537 35.412C154.367 34.068 154.185 32.7347 153.993 31.412C153.716 32.2653 153.396 33.204 153.033 34.228C152.671 35.252 152.287 36.2867 151.881 37.332C151.476 38.356 151.06 39.3693 150.633 40.372C150.207 41.3747 149.791 42.2813 149.385 43.092C149.236 43.3693 149.033 43.5827 148.777 43.732C148.543 43.86 148.297 43.924 148.041 43.924C147.764 43.924 147.497 43.86 147.241 43.732C147.007 43.5827 146.825 43.3587 146.697 43.06ZM170.299 48.82C169.019 48.82 167.813 48.564 166.683 48.052C165.573 47.54 164.603 46.804 163.771 45.844C162.939 44.8627 162.277 43.668 161.787 42.26C161.317 40.852 161.083 39.252 161.083 37.46C161.083 35.7747 161.285 34.228 161.691 32.82C162.117 31.412 162.736 30.196 163.547 29.172C164.379 28.148 165.403 27.3587 166.619 26.804C167.835 26.228 169.243 25.94 170.843 25.94C172.144 25.94 173.381 26.1747 174.555 26.644C175.728 27.1133 176.752 27.8173 177.627 28.756C178.523 29.6947 179.227 30.868 179.739 32.276C180.251 33.684 180.507 35.3267 180.507 37.204C180.507 38.7613 180.293 40.244 179.867 41.652C179.461 43.06 178.832 44.2973 177.979 45.364C177.147 46.4093 176.091 47.252 174.811 47.892C173.531 48.5107 172.027 48.82 170.299 48.82ZM170.363 45.812C171.536 45.812 172.56 45.5773 173.435 45.108C174.309 44.6173 175.035 43.9773 175.611 43.188C176.187 42.3987 176.613 41.492 176.891 40.468C177.168 39.4227 177.307 38.356 177.307 37.268C177.307 35.9453 177.125 34.772 176.763 33.748C176.421 32.7027 175.952 31.828 175.355 31.124C174.757 30.42 174.064 29.8867 173.275 29.524C172.485 29.14 171.643 28.948 170.747 28.948C169.68 28.948 168.741 29.172 167.931 29.62C167.141 30.068 166.469 30.676 165.915 31.444C165.381 32.212 164.976 33.1187 164.699 34.164C164.421 35.188 164.283 36.2867 164.283 37.46C164.283 38.7187 164.443 39.8707 164.763 40.916C165.083 41.94 165.509 42.8147 166.043 43.54C166.597 44.2653 167.248 44.8307 167.995 45.236C168.741 45.62 169.531 45.812 170.363 45.812ZM191.403 40.628C191.105 40.6493 190.795 40.6707 190.475 40.692C190.177 40.692 189.867 40.692 189.547 40.692C189.185 40.692 188.822 40.692 188.459 40.692C188.097 40.692 187.691 40.6707 187.243 40.628V47.124C187.243 47.8067 187.073 48.2333 186.731 48.404C186.411 48.5533 186.006 48.628 185.515 48.628C185.259 48.628 185.057 48.6067 184.907 48.564C184.758 48.5427 184.63 48.4893 184.523 48.404C184.438 48.2973 184.363 48.148 184.299 47.956C184.257 47.764 184.225 47.4973 184.203 47.156C184.161 46.772 184.129 46.2173 184.107 45.492C184.086 44.7453 184.065 43.7853 184.043 42.612C184.043 41.4387 184.033 40.02 184.011 38.356C184.011 36.6707 184.011 34.6973 184.011 32.436C184.011 31.5613 184.118 30.7187 184.331 29.908C184.545 29.076 184.929 28.3507 185.483 27.732C186.038 27.092 186.785 26.58 187.723 26.196C188.683 25.812 189.899 25.62 191.371 25.62C192.417 25.62 193.43 25.7373 194.411 25.972C195.414 26.2067 196.299 26.612 197.067 27.188C197.835 27.764 198.454 28.5427 198.923 29.524C199.393 30.5053 199.627 31.732 199.627 33.204C199.627 35.1667 199.201 36.692 198.347 37.78C197.515 38.8467 196.363 39.604 194.891 40.052L199.179 45.94C199.563 46.452 199.755 46.9747 199.755 47.508C199.755 47.9347 199.606 48.2653 199.307 48.5C199.03 48.756 198.678 48.884 198.251 48.884C197.782 48.884 197.377 48.756 197.035 48.5C196.694 48.2227 196.374 47.8707 196.075 47.444L191.403 40.628ZM196.427 33.172C196.427 31.7 195.979 30.612 195.083 29.908C194.209 29.1827 192.811 28.82 190.891 28.82C190.187 28.82 189.601 28.884 189.131 29.012C188.662 29.1187 188.289 29.332 188.011 29.652C187.734 29.972 187.531 30.42 187.403 30.996C187.297 31.5507 187.243 32.2653 187.243 33.14C187.243 33.7587 187.243 34.484 187.243 35.316C187.243 36.148 187.254 36.9053 187.275 37.588C187.766 37.6093 188.31 37.62 188.907 37.62C189.526 37.62 190.102 37.62 190.635 37.62C191.233 37.62 191.862 37.588 192.523 37.524C193.206 37.4387 193.835 37.2467 194.411 36.948C194.987 36.628 195.467 36.18 195.851 35.604C196.235 35.0067 196.427 34.196 196.427 33.172ZM202.992 43.636C202.949 42.9533 202.907 42.0253 202.864 40.852C202.821 39.6787 202.8 38.4733 202.8 37.236C202.8 36.532 202.8 35.8067 202.8 35.06C202.821 34.292 202.843 33.5133 202.864 32.724C202.907 31.1453 203.003 29.908 203.152 29.012C203.323 28.116 203.643 27.444 204.112 26.996C204.603 26.548 205.285 26.2707 206.16 26.164C207.035 26.0573 208.197 26.004 209.648 26.004C209.669 26.004 209.893 26.004 210.32 26.004C210.768 26.004 211.301 26.0147 211.92 26.036C212.539 26.036 213.179 26.0467 213.84 26.068C214.523 26.0893 215.088 26.1107 215.536 26.132C216.005 26.1747 216.379 26.2387 216.656 26.324C216.955 26.388 217.179 26.484 217.328 26.612C217.477 26.7187 217.573 26.8573 217.616 27.028C217.659 27.1773 217.68 27.348 217.68 27.54C217.68 28.0307 217.541 28.3933 217.264 28.628C216.987 28.8413 216.421 28.98 215.568 29.044C215.141 29.0867 214.512 29.1187 213.68 29.14C212.869 29.14 212.037 29.14 211.184 29.14C210.331 29.14 209.563 29.1507 208.88 29.172C208.197 29.172 207.771 29.172 207.6 29.172C207.045 29.1933 206.651 29.3213 206.416 29.556C206.203 29.7693 206.096 30.292 206.096 31.124C206.096 31.316 206.107 31.7853 206.128 32.532C206.171 33.2573 206.192 34.2813 206.192 35.604H208.848C209.979 35.604 210.896 35.6253 211.6 35.668C212.325 35.6893 212.88 35.7533 213.264 35.86C213.669 35.9667 213.947 36.1373 214.096 36.372C214.245 36.6067 214.32 36.916 214.32 37.3C214.32 37.492 214.299 37.6733 214.256 37.844C214.235 37.9933 214.149 38.132 214 38.26C213.851 38.3667 213.637 38.4627 213.36 38.548C213.083 38.612 212.688 38.6653 212.176 38.708C211.557 38.7507 210.971 38.7827 210.416 38.804C209.883 38.804 209.349 38.804 208.816 38.804H206.128C206.128 39.124 206.128 39.508 206.128 39.956C206.128 40.404 206.128 40.8627 206.128 41.332C206.128 41.8013 206.128 42.26 206.128 42.708C206.149 43.156 206.171 43.5187 206.192 43.796C206.213 44.1373 206.256 44.4253 206.32 44.66C206.405 44.8947 206.544 45.0867 206.736 45.236C206.949 45.3853 207.248 45.492 207.632 45.556C208.037 45.62 208.571 45.652 209.232 45.652H216.112C216.859 45.652 217.328 45.7907 217.52 46.068C217.712 46.3453 217.808 46.7187 217.808 47.188C217.808 47.572 217.723 47.8707 217.552 48.084C217.381 48.276 216.965 48.4147 216.304 48.5C215.664 48.6067 214.693 48.6707 213.392 48.692C212.112 48.7133 210.341 48.724 208.08 48.724C207.12 48.724 206.331 48.6387 205.712 48.468C205.093 48.2973 204.592 48.0093 204.208 47.604C203.824 47.1987 203.536 46.676 203.344 46.036C203.173 45.3747 203.056 44.5747 202.992 43.636Z" fill="#275051"/>
<defs>
<filter id="filter0_i_1_44" x="4.3811" y="4" width="241.214" height="68.3182" filterUnits="userSpaceOnUse" color-interpolation-filters="sRGB">
<feFlood flood-opacity="0" result="BackgroundImageFix"/>
<feBlend mode="normal" in="SourceGraphic" in2="BackgroundImageFix" result="shape"/>
<feColorMatrix in="SourceAlpha" type="matrix" values="0 0 0 0 0 0 0 0 0 0 0 0 0 0 0 0 0 0 127 0" result="hardAlpha"/>
<feOffset dy="2.63636"/>
<feGaussianBlur stdDeviation="0.659091"/>
<feComposite in2="hardAlpha" operator="arithmetic" k2="-1" k3="1"/>
<feColorMatrix type="matrix" values="0 0 0 0 1 0 0 0 0 1 0 0 0 0 1 0 0 0 0.2 0"/>
<feBlend mode="normal" in2="shape" result="effect1_innerShadow_1_44"/>
</filter>
</defs>
</svg>
